<?xml version="1.0" encoding="utf-8"?>
<!-- Generator: Adobe Illustrator 21.0.1, SVG Export Plug-In . SVG Version: 6.00 Build 0)  -->
<svg version="1.1" id="shek" xmlns="http://www.w3.org/2000/svg" xmlns:xlink="http://www.w3.org/1999/xlink" x="0px" y="0px"
	 viewBox="0 0 17.1 17.2" style="enable-background:new 0 0 17.1 17.2;" xml:space="preserve">
<style type="text/css">
	.st0{fill:#DA1B22;}
</style>
<path id="chek" class="st0" d="M14.3,6.8c0,0.2-0.1,0.4-0.2,0.5l-6.1,6.1c-0.3,0.3-0.7,0.3-1,0c0,0,0,0,0,0l-4-4
	C2.9,9.2,2.8,9,2.8,8.8c0-0.2,0.1-0.4,0.2-0.5l1-1C4.3,7,4.7,7,5,7.3c0,0,0,0,0,0l2.5,2.5l4.6-4.5c0.3-0.3,0.7-0.3,1,0c0,0,0,0,0,0
	l1,1C14.2,6.4,14.3,6.6,14.3,6.8z M17.1,8.6c0-4.7-3.8-8.6-8.6-8.6S0,3.8,0,8.6s3.8,8.6,8.6,8.6h0C13.3,17.1,17.1,13.3,17.1,8.6z"/>
</svg>
