<?xml version="1.0" encoding="utf-8"?>
<!-- Generator: Adobe Illustrator 21.0.1, SVG Export Plug-In . SVG Version: 6.00 Build 0)  -->
<svg version="1.1" id="ico1" xmlns="http://www.w3.org/2000/svg" xmlns:xlink="http://www.w3.org/1999/xlink" x="0px" y="0px"
	 viewBox="0 0 57.3 57.4" style="enable-background:new 0 0 57.3 57.4;" xml:space="preserve">
<style type="text/css">
	.st0{fill:#D91921;}
</style>
<path id="ico" class="st0" d="M48.9,8.4C37.6-2.7,19.5-2.7,8.4,8.6C-2.8,19.8-2.7,37.9,8.5,49.1c0.1,0.1,0.2,0.2,0.3,0.3
	c0.3,0.3,0.9,0.3,1.2,0s0.3-0.9,0-1.2c-2.1-2-3.9-4.4-5.2-6.9h8.5c1.8,5,4.5,9.6,8.1,13.5c-2.3-0.6-4.5-1.6-6.6-2.8l-0.2-0.1
	c-0.4-0.2-0.9-0.1-1.2,0.3c-0.2,0.4-0.1,0.9,0.3,1.2l0.2,0.1c13.6,8.1,31.2,3.6,39.3-10C59.9,32.1,58.1,17.7,48.9,8.4z M9.6,9.6
	c3.3-3.4,7.5-5.8,12.1-7c-3.1,4.1-5.7,8.7-7.5,13.5H4.8C6,13.7,7.7,11.5,9.6,9.6z M4,39.6L4,39.6C3.9,39.5,3.9,39.5,4,39.6
	c-3-7-3-14.8,0-21.7h9.6c-0.1,0.3-0.2,0.6-0.3,1C11.4,24.6,11,30.7,12,36.6c0.2,1,0.4,2,0.7,2.9H4L4,39.6z M13.7,36.4
	c-1-5.7-0.6-11.5,1.2-17c0.2-0.5,0.3-1,0.5-1.5h12.5v21.7H14.5C14.1,38.5,13.9,37.4,13.7,36.4L13.7,36.4z M27.8,55.7
	c-1.2,0-2.4-0.2-3.5-0.3c0,0-0.1-0.1-0.1-0.1c-4-3.9-7.2-8.7-9.2-14h12.8V55.7L27.8,55.7z M27.8,16.1H15.9c2-5.1,4.8-9.8,8.3-14
	c0,0,0,0,0.1-0.1c1.2-0.2,2.3-0.3,3.5-0.3L27.8,16.1L27.8,16.1z M29.5,1.7c1.2,0,2.3,0.1,3.5,0.3c0,0,0,0.1,0.1,0.1
	c1.5,1.8,2.8,3.6,4,5.6c0.2,0.4,0.8,0.5,1.2,0.3c0.4-0.2,0.5-0.8,0.3-1.2c0,0,0,0,0,0c-1.1-1.8-2.2-3.2-2.9-4.2
	c4.6,1.2,8.8,3.6,12.1,7c1.9,1.9,3.5,4.1,4.8,6.5h-9.4c-0.5-1.3-1-2.6-1.7-3.9c-0.2-0.4-0.7-0.6-1.1-0.4c-0.4,0.2-0.6,0.7-0.4,1.1
	c0.5,1,0.9,2.1,1.4,3.2H29.5V1.7L29.5,1.7z M29.5,39.6V17.8h12.5c2.6,7,2.9,14.6,0.9,21.7L29.5,39.6L29.5,39.6z M33,55.3
	c-1.2,0.2-2.3,0.3-3.5,0.3V41.2h12.8c-2,5.3-5.1,10.1-9.2,14C33,55.3,33,55.3,33,55.3L33,55.3z M47.7,47.8
	c-3.3,3.3-7.3,5.7-11.8,6.9c3.6-3.9,6.4-8.5,8.2-13.5h8.5C51.2,43.6,49.6,45.8,47.7,47.8L47.7,47.8z M44.5,39.6
	c0.7-2.4,1.1-4.8,1.2-7.2c0.2-4.9-0.4-9.9-2.1-14.5h9.6c3,6.9,3,14.8,0,21.7H44.5L44.5,39.6z"/>
</svg>
