<?xml version="1.0" encoding="utf-8"?>
<!-- Generator: Adobe Illustrator 21.0.1, SVG Export Plug-In . SVG Version: 6.00 Build 0)  -->
<svg version="1.1" id="ico2" xmlns="http://www.w3.org/2000/svg" xmlns:xlink="http://www.w3.org/1999/xlink" x="0px" y="0px"
	 viewBox="0 0 60 60" style="enable-background:new 0 0 60 60;" xml:space="preserve">
<style type="text/css">
	.st0{fill:#D91921;}
</style>
<path id="ico" class="st0" d="M55.2,41.6H9.7V15.5c0-1.6-1.3-2.9-2.9-2.9s-2.9,1.3-2.9,2.9l0,0v26.2C1.6,42.2,0,44.2,0,46.5v5.8
	c0,1.9,1.1,3.7,2.9,4.4v1.4c0,1.1,0.9,1.9,1.9,1.9h3.9c1.1,0,1.9-0.9,1.9-1.9v-1h37.7v1c0,1.1,0.9,1.9,1.9,1.9h3.9
	c1.1,0,1.9-0.9,1.9-1.9V57c2.3-0.5,3.9-2.4,3.9-4.7v-5.8C60,43.8,57.8,41.6,55.2,41.6z M6.8,14.5c0.5,0,1,0.4,1,1v26.1H5.8V15.5l0,0
	C5.8,15,6.2,14.5,6.8,14.5L6.8,14.5z M8.7,58.1H4.8v-1h3.9V58.1L8.7,58.1z M54.2,58.1h-3.9v-1h3.9V58.1L54.2,58.1z M58.1,52.3
	c0,1.6-1.3,2.9-2.9,2.9H4.8c-1.6,0-2.9-1.3-2.9-2.9v-5.8c0-1.6,1.3-2.9,2.9-2.9h50.3c1.6,0,2.9,1.3,2.9,2.9L58.1,52.3L58.1,52.3z
	 M19.4,45.5H5.8c-1.1,0-1.9,0.9-1.9,1.9v3.9c0,1.1,0.9,1.9,1.9,1.9h13.5c1.1,0,1.9-0.9,1.9-1.9v-3.9C21.3,46.3,20.4,45.5,19.4,45.5
	L19.4,45.5z M5.8,51.3v-3.9h13.5v3.9L5.8,51.3L5.8,51.3z M54.2,48.4h1.9v1.9h-1.9V48.4z M50.3,48.4h1.9v1.9h-1.9V48.4z M46.5,48.4
	h1.9v1.9h-1.9V48.4z M42.6,48.4h1.9v1.9h-1.9V48.4z M19.4,25.2c1.6,0,2.9-1.3,2.9-2.9s-1.3-2.9-2.9-2.9s-2.9,1.3-2.9,2.9
	C16.5,23.9,17.8,25.2,19.4,25.2L19.4,25.2z M19.4,21.3c0.5,0,1,0.4,1,1c0,0.5-0.4,1-1,1c-0.5,0-1-0.4-1-1c0,0,0,0,0,0
	C18.4,21.7,18.8,21.3,19.4,21.3L19.4,21.3z M25.2,22.3h1.9c0-4.3-3.5-7.7-7.7-7.7v1.9C22.6,16.5,25.2,19.1,25.2,22.3L25.2,22.3z
	 M30,22.3h1.9c0-6.9-5.6-12.6-12.6-12.6v1.9C25.2,11.6,30,16.4,30,22.3L30,22.3z M34.8,22.3h1.9c0-9.6-7.8-17.4-17.4-17.4v1.9
	C27.9,6.8,34.8,13.7,34.8,22.3L34.8,22.3z M39.7,22.3h1.9C41.6,10,31.6,0,19.4,0v1.9C30.6,1.9,39.7,11,39.7,22.3L39.7,22.3z"/>
</svg>
