<?xml version="1.0" encoding="utf-8"?>
<!-- Generator: Adobe Illustrator 21.0.1, SVG Export Plug-In . SVG Version: 6.00 Build 0)  -->
<svg version="1.1"
	 id="svg2" inkscape:version="0.48.2 r9819" sodipodi:docname="HotMobileLogo.svg" xmlns:cc="http://creativecommons.org/ns#" xmlns:dc="http://purl.org/dc/elements/1.1/" xmlns:inkscape="http://www.inkscape.org/namespaces/inkscape" xmlns:rdf="http://www.w3.org/1999/02/22-rdf-syntax-ns#" xmlns:sodipodi="http://sodipodi.sourceforge.net/DTD/sodipodi-0.dtd" xmlns:svg="http://www.w3.org/2000/svg"
	 xmlns="http://www.w3.org/2000/svg" xmlns:xlink="http://www.w3.org/1999/xlink" x="0px" y="0px" viewBox="0 0 107.5 88.1"
	 style="enable-background:new 0 0 107.5 88.1;" xml:space="preserve">
<style type="text/css">
	.st0{fill:url(#path908_1_);}
	.st1{opacity:0.2;fill:url(#path958_1_);enable-background:new    ;}
	.st2{fill:#FFFFFF;}
</style>
<g id="g10" transform="matrix(1.25,0,0,-1.25,-202.96,1009.8425)" inkscape:groupmode="layer" inkscape:label="31040_hot_mobile_branches_list">
	
		<radialGradient id="path908_1_" cx="-200.5508" cy="528.2354" r="1" gradientTransform="matrix(32.6098 0 0 -32.6098 6760.4443 18010.3965)" gradientUnits="userSpaceOnUse">
		<stop  offset="0" style="stop-color:#F9B29E"/>
		<stop  offset="0.6499" style="stop-color:#ED1C24"/>
		<stop  offset="0.6499" style="stop-color:#ED1C24"/>
		<stop  offset="1" style="stop-color:#ED1C24"/>
	</radialGradient>
	<path id="path908" inkscape:connector-curvature="0" class="st0" d="M168.7,800.3c-4.9-5.8-6.3-13.5-6.3-27.3l0,0
		c0-13.8,2.3-25.6,8.6-30.1l0,0c6.3-4.6,16.6-5.5,33.8-5.5l0,0c17.1,0,28.8,0.7,35.6,6.4l0,0c6.8,5.7,7.9,17.4,8,29.7l0,0
		c0.1,12.4-1.6,21.7-5.9,26.5l0,0c-4.3,4.8-10,7.9-38.4,7.9l0,0C184.9,807.9,173.5,806,168.7,800.3"/>
	
		<radialGradient id="path958_1_" cx="-206.1374" cy="525.3347" r="1" gradientTransform="matrix(63.5161 0 0 -63.5161 13312.5234 34147.8555)" gradientUnits="userSpaceOnUse">
		<stop  offset="0" style="stop-color:#FFFFFF"/>
		<stop  offset="0.9363" style="stop-color:#231F20"/>
		<stop  offset="0.9363" style="stop-color:#231F20"/>
		<stop  offset="1" style="stop-color:#231F20"/>
	</radialGradient>
	<path id="path958" inkscape:connector-curvature="0" class="st1" d="M168.7,800.3c-4.9-5.8-6.3-13.5-6.3-27.3l0,0
		c0-13.8,2.3-25.6,8.6-30.1l0,0c6.3-4.6,16.6-5.5,33.8-5.5l0,0c17.1,0,28.8,0.7,35.6,6.4l0,0c6.8,5.7,7.9,17.4,8,29.7l0,0
		c0.1,12.4-1.6,21.7-5.9,26.5l0,0c-4.3,4.8-10,7.9-38.4,7.9l0,0C184.9,807.9,173.5,806,168.7,800.3"/>
	<path id="path962" inkscape:connector-curvature="0" class="st2" d="M185.9,775.3c0,0-3.8,0-4.4,0c-0.5,0.1-0.9,0.1-1,1
		c-0.2,0.9-0.2,2-0.1,2.6c0,0.6-0.1,1.1-1.2,1.2c-1.1,0.1-2.9,0.2-4.1-0.2c-1.2-0.4-1.3-0.8-1.3-2v-10.9c0-0.5,0.1-1,0.9-1.2
		c0.8-0.2,3.4-0.3,4.8,0.3c0.6,0.3,1,0.5,1,1.5c0,1,0,2.9,0.2,3.5c0.8,0,2.8,0.1,3.3,0c0.4-0.1,0.9-0.1,0.9-1.1c0.1-1,0-2.6,0-3.1
		c-0.1-0.5,0.3-1.1,1.3-1.2c1.1-0.1,3.5-0.3,4.7,0.6c0.7,0.5,0.7,0.9,0.8,1.8c0.1,0.9,0.6,5.3,0.7,6.3c0.1,1,0.3,3,0.4,3.7
		c0.1,0.6,0.4,1.7-0.5,1.9c-0.9,0.2-3,0.4-4.5-0.2c-0.8-0.3-1.2-0.8-1.2-1.5C186.5,777.5,186.3,775.9,185.9,775.3"/>
	<path id="path966" inkscape:connector-curvature="0" class="st2" d="M216.9,780.8c1.2-1.3,1.7-4,1.7-7.5c0-3.5-0.3-6.8-2.3-8.4
		c-1.9-1.6-5.2-1.8-10.1-1.8c-4.9,0-7.8,0.3-9.6,1.6c-1.8,1.3-2.4,4.6-2.4,8.5c0,3.9,0.4,6.1,1.8,7.7c1.4,1.6,4.6,2.2,10,2.2
		C214.1,783.1,215.7,782.2,216.9,780.8 M206.7,778.4c-2.9,0-4.8,0-5.9-0.7c-1.1-0.7-1.6-2.6-1.8-5c-0.2-2.4,0.3-3.8,0.9-4.2
		c0.6-0.4,1.6-0.6,5.8-0.6c4.3,0,5,0.2,5.9,0.8c0.9,0.5,1.4,2.1,1.7,3.7c0.2,1.6,0.6,4-0.4,5.1C212,778.6,209.6,778.4,206.7,778.4"
		/>
	<path id="path970" inkscape:connector-curvature="0" class="st2" d="M222,779.9c-0.8,0-1.5-0.6-1.8-1.1c-0.3-0.5-0.5-2,0-2.7
		c0.2-0.3,0.6-0.4,1.3-0.4h2.3c0.4,0,0.9-0.2,1-1.2c0.2-1.8,0.1-7,0.1-7.7c0-0.8,0.2-1.1,1-1.3c0.7-0.1,2.9-0.1,3.7,0.4
		c0.8,0.5,0.9,0.7,1,1.7c0.1,1.1,0.8,6.6,1.4,8c0.9,0,2.4,0,2.8,0c0.5,0,1,0.2,1.3,0.5c0.4,0.3,0.8,0.6,0.8,2c0,1.3-0.4,1.7-1.4,1.7
		L222,779.9"/>
</g>
</svg>
